<?xml version="1.0" encoding="utf-8"?>
<!-- Generator: Adobe Illustrator 19.0.0, SVG Export Plug-In . SVG Version: 6.00 Build 0)  -->
<svg version="1.1" id="图层_1" xmlns="http://www.w3.org/2000/svg" xmlns:xlink="http://www.w3.org/1999/xlink" x="0px" y="0px"
	 viewBox="330 -55.7 693.3 127.3" style="enable-background:new 330 -55.7 693.3 127.3;" xml:space="preserve">
<style type="text/css">
	.st0{fill:url(#SVGID_1_);}
	.st1{fill:url(#SVGID_2_);}
	.st2{fill:url(#SVGID_3_);}
	.st3{fill:url(#SVGID_4_);}
	.st4{fill:url(#SVGID_5_);}
	.st5{fill:url(#SVGID_6_);}
	.st6{fill:url(#SVGID_7_);}
	.st7{fill:url(#SVGID_8_);}
	.st8{fill:url(#SVGID_9_);}
	.st9{fill:url(#SVGID_10_);}
	.st10{fill:url(#SVGID_11_);}
	.st11{fill:url(#SVGID_12_);}
	.st12{fill:url(#SVGID_13_);}
	.st13{fill:url(#SVGID_14_);}
</style>
<title>资源 1</title>
<g>
	
		<linearGradient id="SVGID_1_" gradientUnits="userSpaceOnUse" x1="398.3503" y1="-52.05" x2="398.3503" y2="71.05" gradientTransform="matrix(1 0 0 -1 0 18)">
		<stop  offset="0" style="stop-color:#1E76C7"/>
		<stop  offset="1" style="stop-color:#26C0EC"/>
	</linearGradient>
	<path class="st0" d="M460.4-28.2c-1.5-6.5-2.3-10.6-9.7-14.7C432.7-53,398.4-53,398.4-53h-0.1c0,0-34.3,0-52.4,10.2
		c-7.4,4.1-8.2,8.3-9.7,14.8C334-17.8,334-1.9,334-1.9s0,15.8,2.3,26.3c1.5,6.5,2.3,10.7,9.7,14.9c8.8,4.9,21.4,7.5,32.1,8.9
		c2.6,0.8,5.1,1.9,7.4,3.4c4.5,3.2,6.6,7.9,8.6,14.2c1.1,3.4,2.2,4.2,4.3,4.2s3.2-0.8,4.3-4.2c2-6.4,4.1-11.1,8.6-14.2
		c2.3-1.5,4.8-2.6,7.4-3.4c10.6-1.3,23.3-3.9,32.1-8.9c7.4-4.1,8.2-8.4,9.7-14.9c2.4-10.4,2.3-26.2,2.3-26.2S462.8-17.8,460.4-28.2z
		 M447.3,18.7c-1.2,5.1-1.8,8.4-7.6,11.7c-14.3,8-41.3,8.1-41.3,8.1s-27-0.1-41.3-8.1c-5.8-3.2-6.5-6.5-7.7-11.7
		c-1.9-8.2-1.8-20.7-1.8-20.7s0-12.5,1.8-20.7c1.2-5.1,1.8-8.3,7.6-11.6c14.3-8,41.3-7.9,41.3-7.9s27-0.1,41.3,7.9
		c5.8,3.2,6.4,6.5,7.6,11.6C449.1-14.5,449-2,449-2S449.2,10.6,447.3,18.7z"/>
	
		<linearGradient id="SVGID_2_" gradientUnits="userSpaceOnUse" x1="398.45" y1="-2.35" x2="398.45" y2="14.25" gradientTransform="matrix(1 0 0 -1 0 18)">
		<stop  offset="0" style="stop-color:#1E76C7"/>
		<stop  offset="1" style="stop-color:#26C0EC"/>
	</linearGradient>
	<path class="st1" d="M432.6,3.7h-4.7c-0.5,0-0.9,0.4-0.9,0.9v3.8h-3.8c-0.5,0-0.9,0.4-0.9,0.9v4.1h-47.4v-4c0-0.5-0.4-0.9-0.9-0.9
		h-4.1V4.7c0-0.5-0.4-0.9-0.9-0.9h-4.7c-0.5,0-0.9,0.4-0.9,0.9v4.7c0,0.5,0.4,0.9,0.9,0.9h3.8v4.1c0,0.5,0.4,0.9,0.9,0.9h4.1v4.1
		c0,0.5,0.4,0.9,0.9,0.9h49.3c0.5,0,0.9-0.4,0.9-0.9v-4.1h3.8c0.5,0,0.9-0.4,0.9-0.9v-4.1h3.8c0.5,0,0.9-0.4,0.9-0.9V4.7
		C433.5,4.1,433.1,3.7,432.6,3.7z"/>
	
		<linearGradient id="SVGID_3_" gradientUnits="userSpaceOnUse" x1="369.0001" y1="21.45" x2="369.0001" y2="34.65" gradientTransform="matrix(1 0 0 -1 0 18)">
		<stop  offset="0" style="stop-color:#1E76C7"/>
		<stop  offset="1" style="stop-color:#26C0EC"/>
	</linearGradient>
	<path class="st2" d="M373.9-3.5c0.9,0,1.6-0.7,1.6-1.6v-10c0-0.9-0.7-1.6-1.6-1.6h-9.7c-0.9,0-1.6,0.7-1.6,1.6v10
		c0,0.9,0.7,1.6,1.6,1.6H373.9z"/>
	
		<linearGradient id="SVGID_4_" gradientUnits="userSpaceOnUse" x1="427.7501" y1="21.45" x2="427.7501" y2="34.65" gradientTransform="matrix(1 0 0 -1 0 18)">
		<stop  offset="0" style="stop-color:#1E76C7"/>
		<stop  offset="1" style="stop-color:#26C0EC"/>
	</linearGradient>
	<path class="st3" d="M432.5-16.7h-9.4c-0.8,0-1.5,0.7-1.6,1.6v10c0,0.9,0.7,1.6,1.6,1.6h9.4c0.9,0,1.6-0.7,1.6-1.6v-10
		C434.1-16,433.4-16.7,432.5-16.7z"/>
	
		<linearGradient id="SVGID_5_" gradientUnits="userSpaceOnUse" x1="538.7001" y1="-27.95" x2="538.7002" y2="46.9501" gradientTransform="matrix(1 0 0 -1 0 18)">
		<stop  offset="0" style="stop-color:#1E76C7"/>
		<stop  offset="1" style="stop-color:#26C0EC"/>
	</linearGradient>
	<path class="st4" d="M567-29h-7.1c-0.8,0-1.5,0.7-1.5,1.5v51.1l-45.2-52c-0.3-0.3-0.7-0.5-1.1-0.5h-1.6c-0.8,0-1.5,0.7-1.5,1.5
		v71.8c0,0.8,0.7,1.5,1.5,1.5h7.4c0.8,0,1.5-0.7,1.5-1.5V-6l44.8,51.4c0.3,0.3,0.7,0.5,1.1,0.5h1.7c0.8,0,1.5-0.7,1.5-1.5v-71.8
		C568.5-28.3,567.8-29,567-29z"/>
	
		<linearGradient id="SVGID_6_" gradientUnits="userSpaceOnUse" x1="607.9001" y1="-29.25" x2="607.9001" y2="29.5584" gradientTransform="matrix(1 0 0 -1 0 18)">
		<stop  offset="0" style="stop-color:#1E76C7"/>
		<stop  offset="1" style="stop-color:#26C0EC"/>
	</linearGradient>
	<path class="st5" d="M608-11.6c-8.2-0.2-16.1,3.3-21.5,9.4c-10.5,11.6-10.3,29.3,0.4,40.6c5.4,5.8,12.5,8.8,21.1,8.8s15.6-3,21-8.8
		c10.7-11.4,10.9-29.1,0.4-40.7C624-8.4,616.2-11.8,608-11.6z M624.7,28.1c-1.7,3-4.1,5.4-7,7.1c-6,3.3-13.4,3.3-19.4,0
		c-2.9-1.7-5.4-4.1-7-7.1c-1.7-3.1-2.6-6.5-2.6-10c-0.1-5.3,1.9-10.4,5.7-14.2c7.1-7.5,18.9-7.8,26.4-0.8c0.3,0.2,0.5,0.5,0.8,0.8
		c3.8,3.7,5.8,8.9,5.7,14.2C627.3,21.6,626.4,25,624.7,28.1z"/>
	
		<linearGradient id="SVGID_7_" gradientUnits="userSpaceOnUse" x1="666.708" y1="-27.85" x2="666.708" y2="28.25" gradientTransform="matrix(1 0 0 -1 0 18)">
		<stop  offset="0" style="stop-color:#1E76C7"/>
		<stop  offset="1" style="stop-color:#26C0EC"/>
	</linearGradient>
	<path class="st6" d="M692.5-10.2c-0.2,0-0.4-0.1-0.6-0.1h-7.3c-0.6,0-1.1,0.3-1.4,0.9l-16.3,35.8L650.4-9.3
		c-0.2-0.5-0.8-0.9-1.4-0.9h-7.3c-0.8,0-1.5,0.7-1.5,1.5c0,0.2,0,0.4,0.1,0.6l24.5,53.1c0.2,0.5,0.8,0.9,1.4,0.9h1.3
		c0.6,0,1.1-0.3,1.4-0.9l24.3-53.1C693.5-9,693.2-9.8,692.5-10.2z"/>
	
		<linearGradient id="SVGID_8_" gradientUnits="userSpaceOnUse" x1="726.6989" y1="-29.2705" x2="726.6989" y2="29.5591" gradientTransform="matrix(1 0 0 -1 0 18)">
		<stop  offset="0" style="stop-color:#1E76C7"/>
		<stop  offset="1" style="stop-color:#26C0EC"/>
	</linearGradient>
	<path class="st7" d="M754.3-10.3h-6.7c-0.8,0-1.5,0.7-1.5,1.5v5.6c-5-5.5-12.2-8.6-19.6-8.4c-7.7-0.1-15.1,3-20.4,8.6
		c-5.5,5.5-8.6,12.9-8.5,20.7c-0.1,7.8,2.9,15.4,8.4,20.9c8.5,8.8,21.7,11.1,32.7,5.8c2.8-1.4,5.3-3.2,7.5-5.4v5.3
		c0,0.8,0.7,1.5,1.5,1.5h6.7c0.8,0,1.5-0.7,1.5-1.5V-8.8C755.8-9.6,755.2-10.3,754.3-10.3z M744,28.2c-1.7,3-4.2,5.4-7.2,7.1
		s-6.4,2.6-9.8,2.6s-6.7-0.9-9.7-2.7c-3-1.8-5.5-4.3-7.2-7.4c-3.6-6.2-3.6-13.8,0-20c3.4-6.1,9.9-9.9,16.9-9.9
		c5.2-0.1,10.3,2,13.9,5.8c3.8,3.8,5.8,9,5.6,14.4C746.5,21.6,745.7,25.1,744,28.2z"/>
	
		<linearGradient id="SVGID_9_" gradientUnits="userSpaceOnUse" x1="771.25" y1="-27.85" x2="771.25" y2="28.25" gradientTransform="matrix(1 0 0 -1 0 18)">
		<stop  offset="0" style="stop-color:#1E76C7"/>
		<stop  offset="1" style="stop-color:#26C0EC"/>
	</linearGradient>
	<path class="st8" d="M774.7-10.3h-6.8c-0.9,0-1.5,0.7-1.5,1.5v53.1c0,0.8,0.7,1.5,1.5,1.5h6.8c0.8,0,1.5-0.7,1.5-1.5V-8.8
		C776.2-9.6,775.5-10.3,774.7-10.3z"/>
	
		<linearGradient id="SVGID_10_" gradientUnits="userSpaceOnUse" x1="771.3" y1="35.85" x2="771.3001" y2="50.15" gradientTransform="matrix(1 0 0 -1 0 18)">
		<stop  offset="0" style="stop-color:#1E76C7"/>
		<stop  offset="1" style="stop-color:#26C0EC"/>
	</linearGradient>
	<path class="st9" d="M771.3-32.2c-1.9,0-3.7,0.7-5,2.1c-2.8,2.8-2.8,7.3,0,10.1c2.8,2.8,7.3,2.8,10.1,0c1.3-1.3,2.1-3.1,2.1-5
		C778.4-28.9,775.2-32.1,771.3-32.2z"/>
	
		<linearGradient id="SVGID_11_" gradientUnits="userSpaceOnUse" x1="820.4028" y1="-29.8554" x2="820.4028" y2="48.655" gradientTransform="matrix(1 0 0 -1 0 18)">
		<stop  offset="0" style="stop-color:#1E76C7"/>
		<stop  offset="1" style="stop-color:#26C0EC"/>
	</linearGradient>
	<path class="st10" d="M850.8,26.5c-0.6-0.5-1.5-0.4-2,0.2c-6.4,7.5-14.5,11.3-24.1,11.3c-8.7,0-16-2.8-21.7-8.4
		c-5.6-5.4-8.7-13-8.6-20.8c-0.1-5.2,1.3-10.4,3.8-14.9c2.6-4.5,6.2-8.2,10.7-10.7c4.6-2.6,9.9-4,15.2-3.9c4.8-0.1,9.5,1,13.8,3
		c4.2,2.1,7.9,5.1,10.7,8.8c0.5,0.7,1.4,0.8,2.1,0.3l5.7-4.3c0.6-0.5,0.8-1.4,0.3-2.1c-3.6-5-8.3-9-13.8-11.6
		c-5.9-2.8-12.3-4.2-18.8-4.1c-11.5,0-21.1,3.8-28.8,11.2c-7.5,7.2-11.7,17.2-11.5,27.6c0,10.3,3.2,19.3,9.5,26.6
		c7.5,8.7,17.9,13.1,30.9,13.1c6.4,0.1,12.7-1.2,18.6-3.9c5.5-2.5,10.3-6.3,14-11c0.5-0.7,0.4-1.6-0.3-2.1L850.8,26.5z"/>
	
		<linearGradient id="SVGID_12_" gradientUnits="userSpaceOnUse" x1="893.5989" y1="-29.2705" x2="893.5989" y2="29.5591" gradientTransform="matrix(1 0 0 -1 0 18)">
		<stop  offset="0" style="stop-color:#1E76C7"/>
		<stop  offset="1" style="stop-color:#26C0EC"/>
	</linearGradient>
	<path class="st11" d="M921.3-10.3h-6.7c-0.8,0-1.5,0.7-1.5,1.5v5.6c-5-5.5-12.2-8.6-19.7-8.4c-7.7-0.1-15.1,3-20.4,8.6
		c-5.5,5.5-8.6,12.9-8.5,20.7c-0.1,7.8,2.9,15.4,8.4,20.9c8.5,8.8,21.7,11.1,32.7,5.8c2.8-1.4,5.3-3.2,7.5-5.4v5.3
		c0,0.8,0.7,1.5,1.5,1.5h6.7c0.8,0,1.5-0.7,1.5-1.5V-8.8C922.8-9.6,922.2-10.3,921.3-10.3z M911,28.2c-1.7,3-4.2,5.4-7.2,7.1
		s-6.4,2.6-9.8,2.6s-6.7-0.9-9.7-2.7c-3-1.8-5.5-4.3-7.2-7.4c-3.6-6.2-3.6-13.8,0-20c3.4-6.1,9.9-9.9,16.9-9.9
		c5.2-0.1,10.3,2,13.9,5.8c3.8,3.8,5.8,9,5.6,14.4C913.5,21.6,912.7,25.1,911,28.2z"/>
	
		<linearGradient id="SVGID_13_" gradientUnits="userSpaceOnUse" x1="946.1829" y1="-27.95" x2="946.1829" y2="29.55" gradientTransform="matrix(1 0 0 -1 0 18)">
		<stop  offset="0" style="stop-color:#1E76C7"/>
		<stop  offset="1" style="stop-color:#26C0EC"/>
	</linearGradient>
	<path class="st12" d="M961.1-8.7c-0.1-0.4-0.4-0.7-0.7-0.9c-2.1-1.2-4.4-1.9-6.8-2c-2.9,0-5.6,0.9-8,2.5c-1.6,1.1-3,2.3-4.3,3.8
		v-3.4c0-0.8-0.7-1.5-1.5-1.5h-7c-0.8,0-1.5,0.7-1.5,1.5v53.1c0,0.8,0.7,1.5,1.5,1.5h7c0.8,0,1.5-0.7,1.5-1.5v-18
		c0-9,0.4-15.1,1.2-18c1-3.6,2.5-6.3,4.4-8c1.5-1.5,3.5-2.4,5.6-2.4c1,0.1,2.1,0.4,3,0.8c0.7,0.3,1.5,0,1.9-0.6l3.6-5.8
		C961.2-7.9,961.2-8.3,961.1-8.7z"/>
	
		<linearGradient id="SVGID_14_" gradientUnits="userSpaceOnUse" x1="988.7985" y1="-29.05" x2="988.7985" y2="29.65" gradientTransform="matrix(1 0 0 -1 0 18)">
		<stop  offset="0" style="stop-color:#1E76C7"/>
		<stop  offset="1" style="stop-color:#26C0EC"/>
	</linearGradient>
	<path class="st13" d="M1011.5-0.8c-5.7-7.2-13.4-10.9-22.9-10.9c-9.2,0-16.7,3.6-22.2,10.6c-4.3,5.4-6.6,12.1-6.5,18.9
		c0,7.5,2.7,14.7,7.7,20.2c5.2,6,12.4,9,21.5,9c3.8,0,7.5-0.6,11-1.9c3.3-1.3,6.3-3.1,8.8-5.5c2.8-2.7,5.2-5.9,6.9-9.4
		c0.4-0.7,0.1-1.6-0.6-2l-5.8-3c-0.7-0.4-1.6-0.1-2,0.6c-1.5,2.7-3.3,5.1-5.5,7.2c-1.8,1.5-3.8,2.7-6.1,3.5
		c-2.3,0.9-4.8,1.3-7.3,1.3c-4.9,0.1-9.7-1.9-13-5.5c-3.3-3.4-5.2-7.9-5.4-12.6h46.2c0.8,0,1.5-0.7,1.5-1.5
		C1017.6,10.8,1015.5,4.3,1011.5-0.8z M971.1,10.9c1-3.2,2.8-6.1,5.2-8.4c3.4-3.1,7.9-4.7,12.5-4.6c2.9,0,5.8,0.6,8.4,1.9
		c2.5,1.1,4.7,2.8,6.4,4.8c1.4,1.9,2.5,4,3.2,6.3H971.1z"/>
</g>
</svg>
