<?xml version="1.0" encoding="utf-8"?>
<!-- Generator: Adobe Illustrator 19.0.0, SVG Export Plug-In . SVG Version: 6.00 Build 0)  -->
<svg version="1.1" id="Layer_1" xmlns="http://www.w3.org/2000/svg" xmlns:xlink="http://www.w3.org/1999/xlink" x="0px" y="0px"
	 viewBox="248 -248 512 512" style="enable-background:new 248 -248 512 512;" xml:space="preserve">
<style type="text/css">
	.st0{fill:#E4E6EB;}
</style>
<g>
	<polygon class="st0" points="449.1,71 475.3,71 538.5,71 531.3,49.3 527,36.6 520.6,17.4 497.7,48 493.8,53.1 491.1,50.5 
		475.9,35.3 453.5,65.1 	"/>
	<path class="st0" d="M530.3-13.9l-17.3-44.7L380.6-7.3l39,100.7H562V-13.9H530.3z M420,60.4L396.5-0.3L420-9.4V60.4z M504.9-42.3
		l11,28.4h-84.3L504.9-42.3z M548.5,80H432.3V-1.6h116.2V80z"/>
	<path class="st0" d="M456.9,33c6.2,0,11.2-5,11.2-11.2c0-6.2-5-11.2-11.2-11.2s-11.2,5-11.2,11.2C445.7,28,450.7,33,456.9,33z"/>
</g>
</svg>
