<?xml version="1.0" encoding="utf-8"?>
<!-- Generator: Adobe Illustrator 19.0.0, SVG Export Plug-In . SVG Version: 6.00 Build 0)  -->
<svg version="1.1" id="图层_1" xmlns="http://www.w3.org/2000/svg" xmlns:xlink="http://www.w3.org/1999/xlink" x="0px" y="0px"
	 viewBox="71 -83 182 182" style="enable-background:new 71 -83 182 182;" xml:space="preserve">
<style type="text/css">
	.st0{fill:#50D281;}
</style>
<path class="st0" d="M162-77c-46.9,0-85,38.1-85,85s38.1,85,85,85s85-38.1,85-85S208.9-77,162-77z M216.5-11.1l-56.9,60.6
	c-0.5,0.5-1.1,1-1.7,1.4c-3.6,3.3-8.6,3.7-12.1,0.2L117,22.3c-3.6-3.6-3.6-9.5,0-13.1s9.5-3.6,13.1,0l21.4,21.4l51.7-55
	c3.7-3.7,9.6-3.7,13.3,0S220.2-14.7,216.5-11.1z"/>
</svg>
